<svg version="1.1" id="Layer_1" xmlns="http://www.w3.org/2000/svg" xmlns:xlink="http://www.w3.org/1999/xlink" x="0px" y="0px"
	 width="100%" viewBox="0 0 464 448" enable-background="new 0 0 464 448" xml:space="preserve">
<path fill="#000000" opacity="1.000000" stroke="none" 
	d="
M21.277027,430.199951 
	C19.342962,430.088409 17.793020,430.375427 15.568686,428.603516 
	C89.053642,289.301697 162.638535,149.810425 237.012405,8.823548 
	C311.237854,149.632187 384.781464,289.147278 458.254700,428.528931 
	C456.486542,430.655945 454.514282,430.069427 452.792664,430.071930 
	C411.460724,430.131561 370.128601,430.106201 328.796844,430.219147 
	C325.306976,430.228668 323.355377,428.956970 321.788849,425.901306 
	C313.580444,409.890289 305.072357,394.031830 296.971344,377.967560 
	C295.026917,374.111725 292.649078,372.836060 288.440765,372.851227 
	C253.442566,372.977539 218.443298,372.955750 183.445343,372.780640 
	C180.055527,372.763702 178.749252,374.391876 177.462311,376.887756 
	C169.522415,392.286194 161.277679,407.534821 153.697617,423.107513 
	C151.023560,428.601196 147.698761,430.304565 141.734360,430.269531 
	C101.737587,430.034302 61.738571,430.179779 21.277027,430.199951 
M289.204407,177.232147 
	C271.958344,144.705978 254.712265,112.179825 236.863098,78.516212 
	C180.845367,185.178604 125.540329,290.483978 70.208061,395.841187 
	C73.122810,397.294952 75.156807,396.962097 77.127296,396.967407 
	C92.792961,397.009705 108.462692,396.816193 124.122124,397.136963 
	C128.877563,397.234375 131.259995,395.467224 133.316467,391.392059 
	C143.372955,371.463593 153.624161,351.632019 163.951569,331.841919 
	C186.997238,287.680206 210.121521,243.559509 233.252792,199.442551 
	C234.214813,197.607727 234.753754,195.360870 237.214554,194.235001 
	C239.066879,195.751877 239.825851,198.007126 240.861130,200.002121 
	C249.607956,216.857285 258.335876,233.722778 266.938416,250.651764 
	C268.226105,253.185745 269.606537,254.241211 272.639923,254.203476 
	C289.969727,253.987808 307.303192,254.075424 324.635193,254.003357 
	C325.857788,253.998276 327.296021,254.713776 328.662659,252.981277 
	C315.685211,228.046661 302.628479,202.959671 289.204407,177.232147 
M359.704529,311.726746 
	C356.198792,304.920197 352.624237,298.147797 349.220520,291.290619 
	C347.822845,288.474854 346.025818,287.040955 342.667542,287.048737 
	C305.697021,287.134277 268.726135,287.115112 231.755493,287.050476 
	C228.892563,287.045471 227.223007,288.094574 225.899384,290.653870 
	C218.405075,305.144318 210.746323,319.549652 203.189407,334.007965 
	C202.453751,335.415466 201.260284,336.784851 201.928818,338.663940 
	C203.798889,340.259399 206.061203,339.647278 208.145645,339.649933 
	C241.619171,339.692749 275.093109,339.754242 308.565857,339.591156 
	C312.680939,339.571106 314.838928,340.987762 316.640869,344.580353 
	C324.773956,360.795410 333.191711,376.867432 341.430450,393.029968 
	C343.000854,396.110748 344.816711,397.425751 348.707001,397.541504 
	C360.528046,397.893280 372.314362,396.641327 384.148438,397.360962 
	C390.441223,397.743591 396.906738,397.557892 404.181396,396.258118 
	C389.159424,367.720795 374.597351,340.057098 359.704529,311.726746 
z"/>
</svg>