<?xml version="1.0" encoding="UTF-8"?>
<svg version="1.1" xmlns="http://www.w3.org/2000/svg" width="504" height="495">
<path d="M0 0 C75.24 0 150.48 0 228 0 C228.04030303 57.38704261 228.04030303 57.38704261 228.04882812 81.35351562 C228.05079192 86.83048505 228.05280665 92.30745446 228.05493164 97.78442383 C228.05519539 98.47091619 228.05545914 99.15740855 228.05573088 99.86470371 C228.06008562 110.96190043 228.06797242 122.05909199 228.0771528 133.15628564 C228.08648923 144.53664527 228.09198069 155.91700107 228.09408849 167.29736477 C228.09539603 173.69304953 228.0984846 180.08872259 228.10573006 186.48440361 C228.11248629 192.49659405 228.11461778 198.50876789 228.11310768 204.52096176 C228.11338419 206.73458382 228.11539165 208.94820639 228.11920547 211.16182518 C228.12413652 214.16991091 228.12300048 217.17793287 228.12025452 220.1860199 C228.12462378 221.51819137 228.12462378 221.51819137 228.12908131 222.87727541 C228.11412121 228.88587879 228.11412121 228.88587879 227 230 C224.07957865 230.09796423 221.18278531 230.12992113 218.26194763 230.12025452 C217.33637558 230.12111053 216.41080353 230.12196655 215.45718384 230.12284851 C212.3209648 230.12451427 209.18479821 230.11896302 206.04858398 230.11352539 C203.77566816 230.11321931 201.50275224 230.11335211 199.22983646 230.11389065 C193.11994451 230.11411725 187.01007198 230.10830383 180.90018463 230.10128021 C175.17568396 230.09560291 169.45118811 230.09531806 163.72668457 230.09460449 C146.96362045 230.08934841 130.20055999 230.07538738 113.4375 230.0625 C76.003125 230.041875 38.56875 230.02125 0 230 C0 154.1 0 78.2 0 0 Z " fill="#0579D4" transform="translate(265,7)"/>
<path d="M0 0 C75.24 0 150.48 0 228 0 C228.04030303 57.38704261 228.04030303 57.38704261 228.04882812 81.35351562 C228.05079192 86.83048505 228.05280665 92.30745446 228.05493164 97.78442383 C228.05519539 98.47091619 228.05545914 99.15740855 228.05573088 99.86470371 C228.06008562 110.96190043 228.06797242 122.05909199 228.0771528 133.15628564 C228.08648923 144.53664527 228.09198069 155.91700107 228.09408849 167.29736477 C228.09539603 173.69304953 228.0984846 180.08872259 228.10573006 186.48440361 C228.11248629 192.49659405 228.11461778 198.50876789 228.11310768 204.52096176 C228.11338419 206.73458382 228.11539165 208.94820639 228.11920547 211.16182518 C228.12413652 214.16991091 228.12300048 217.17793287 228.12025452 220.1860199 C228.12462378 221.51819137 228.12462378 221.51819137 228.12908131 222.87727541 C228.11412121 228.88587879 228.11412121 228.88587879 227 230 C224.07957865 230.09796423 221.18278531 230.12992113 218.26194763 230.12025452 C217.33637558 230.12111053 216.41080353 230.12196655 215.45718384 230.12284851 C212.3209648 230.12451427 209.18479821 230.11896302 206.04858398 230.11352539 C203.77566816 230.11321931 201.50275224 230.11335211 199.22983646 230.11389065 C193.11994451 230.11411725 187.01007198 230.10830383 180.90018463 230.10128021 C175.17568396 230.09560291 169.45118811 230.09531806 163.72668457 230.09460449 C146.96362045 230.08934841 130.20055999 230.07538738 113.4375 230.0625 C76.003125 230.041875 38.56875 230.02125 0 230 C0 154.1 0 78.2 0 0 Z " fill="#057AD4" transform="translate(13,7)"/>
<path d="M0 0 C75.24 0 150.48 0 228 0 C228 75.57 228 151.14 228 229 C152.76 229 77.52 229 0 229 C0 153.43 0 77.86 0 0 Z " fill="#0178D3" transform="translate(265,260)"/>
<path d="M0 0 C75.24 0 150.48 0 228 0 C228 75.57 228 151.14 228 229 C152.76 229 77.52 229 0 229 C0 153.43 0 77.86 0 0 Z " fill="#0178D3" transform="translate(13,260)"/>
<path d="M0 0 C75.24 0 150.48 0 228 0 C228 75.57 228 151.14 228 229 C152.76 229 77.52 229 0 229 C0 153.43 0 77.86 0 0 Z M2 2 C2 76.25 2 150.5 2 227 C75.92 227 149.84 227 226 227 C226 152.75 226 78.5 226 2 C152.08 2 78.16 2 2 2 Z " fill="#61A4D6" transform="translate(265,260)"/>
<path d="M0 0 C75.24 0 150.48 0 228 0 C228 75.57 228 151.14 228 229 C152.76 229 77.52 229 0 229 C0 153.43 0 77.86 0 0 Z M2 2 C2 76.25 2 150.5 2 227 C75.92 227 149.84 227 226 227 C226 152.75 226 78.5 226 2 C152.08 2 78.16 2 2 2 Z " fill="#61A6D7" transform="translate(13,260)"/>
</svg>
